<?xml version="1.0" standalone="no"?>
<!DOCTYPE svg PUBLIC "-//W3C//DTD SVG 20010904//EN"
 "http://www.w3.org/TR/2001/REC-SVG-20010904/DTD/svg10.dtd">
<svg version="1.0" xmlns="http://www.w3.org/2000/svg"
 width="1191.000000pt" height="730.000000pt" viewBox="0 0 1191.000000 730.000000"
 preserveAspectRatio="xMidYMid meet">

<g transform="translate(0.000000,730.000000) scale(0.100000,-0.100000)"
fill="#000000" stroke="none">
<path d="M5520 6969 c-304 -13 -837 -63 -1100 -105 -372 -59 -846 -176 -1234
-305 -269 -90 -756 -312 -923 -420 -29 -19 -75 -47 -103 -64 -248 -146 -591
-454 -731 -655 -13 -19 -32 -43 -41 -52 -10 -10 -18 -25 -18 -34 0 -9 -10 -30
-22 -47 -31 -44 -46 -73 -70 -137 -11 -30 -27 -62 -34 -71 -8 -8 -18 -35 -23
-60 -5 -24 -19 -91 -31 -149 -12 -58 -25 -121 -29 -140 -11 -55 -5 -234 9
-261 27 -51 30 -60 32 -114 1 -30 6 -55 11 -55 5 0 7 -10 6 -22 -2 -13 2 -33
9 -45 7 -12 12 -28 12 -37 0 -8 7 -16 16 -18 12 -2 18 -16 21 -43 2 -22 8 -42
12 -45 5 -3 12 -16 16 -30 4 -14 16 -31 26 -38 11 -7 19 -22 19 -32 0 -10 9
-39 20 -64 14 -33 25 -46 40 -46 13 0 20 -7 20 -18 0 -33 30 -82 45 -75 9 3
15 -1 15 -11 0 -9 5 -16 11 -16 5 0 17 -16 25 -36 8 -19 20 -34 27 -31 12 4
39 -26 50 -56 4 -10 22 -24 41 -32 19 -8 36 -19 38 -24 2 -6 65 1 161 19 87
16 240 41 340 55 221 32 219 32 181 51 -35 18 -164 150 -164 169 0 7 -8 15
-19 18 -10 2 -27 23 -37 46 -10 22 -21 41 -26 41 -17 0 -44 37 -53 75 -7 30
-16 41 -32 43 -14 2 -20 8 -16 18 3 8 1 14 -4 14 -5 0 -15 24 -22 53 -15 68
-43 128 -57 123 -6 -2 -10 7 -9 23 1 14 -2 58 -6 96 -7 60 -10 317 -5 422 1
18 7 38 14 45 6 6 12 24 12 39 0 15 4 29 8 31 8 3 52 134 52 155 0 6 7 13 15
16 8 3 23 25 35 49 27 57 42 81 57 91 7 4 24 28 38 52 15 24 35 47 45 50 11 3
22 14 25 24 8 27 170 187 269 266 217 173 584 381 896 507 496 201 1133 346
1780 405 247 22 1129 26 1360 5 370 -33 569 -62 935 -138 694 -144 1345 -425
1795 -776 94 -74 274 -254 316 -317 14 -23 31 -38 36 -35 5 3 12 -3 15 -14 3
-11 11 -23 19 -26 7 -3 11 -11 8 -19 -3 -8 2 -20 11 -27 8 -7 15 -19 15 -26 0
-8 5 -14 10 -14 6 0 10 -9 10 -20 0 -11 3 -20 8 -20 4 0 13 -15 20 -32 7 -18
18 -40 23 -48 5 -8 13 -25 18 -37 6 -11 15 -24 21 -28 6 -4 8 -16 5 -26 -4
-11 -1 -26 5 -34 6 -7 12 -27 12 -44 1 -17 4 -31 9 -31 4 0 7 -21 6 -46 0 -28
5 -49 13 -54 8 -5 13 -32 14 -78 1 -38 4 -65 8 -58 5 7 8 5 8 -6 0 -9 -5 -20
-11 -24 -6 -3 -8 -17 -4 -31 4 -17 0 -32 -11 -44 -11 -13 -15 -31 -12 -63 2
-26 0 -46 -3 -46 -4 0 -9 -15 -12 -32 -15 -89 -25 -125 -38 -149 -8 -15 -27
-51 -43 -80 -16 -30 -32 -55 -37 -57 -5 -2 -9 -8 -9 -14 0 -5 -21 -41 -47 -80
-27 -39 -57 -85 -68 -102 -20 -32 -111 -126 -155 -160 -23 -19 -23 -20 -5 -27
18 -7 534 -93 641 -106 52 -7 113 30 146 87 13 22 29 40 36 40 7 0 17 12 23
28 6 15 23 41 39 57 16 17 38 51 49 76 10 26 30 56 43 68 12 12 23 25 24 29 3
30 27 90 41 104 35 32 44 49 50 86 3 20 7 46 8 57 2 11 4 31 4 45 1 19 3 22
11 10 5 -8 12 -12 15 -9 15 16 35 205 36 346 2 170 -1 199 -28 307 l-18 71 -6
-40 -5 -40 -8 37 c-5 21 -6 45 -2 53 9 24 -5 75 -20 75 -8 0 -14 10 -14 24 0
14 -4 28 -10 31 -9 6 -22 31 -51 103 -8 17 -19 32 -26 32 -7 0 -24 25 -37 55
-14 30 -33 63 -43 73 -10 10 -25 29 -33 42 -38 57 -135 166 -220 245 -6 6 -21
21 -34 35 -97 104 -353 290 -587 426 -556 323 -1399 597 -2179 708 -608 86
-1183 118 -1730 95z"/>
<path d="M5475 6339 c-115 -4 -295 -15 -400 -24 -198 -17 -582 -62 -595 -70
-9 -5 27 -163 58 -255 12 -36 35 -118 51 -183 l29 -118 -21 -9 c-12 -6 -116
-23 -232 -40 -115 -17 -302 -48 -415 -70 -113 -21 -257 -48 -320 -60 -260 -47
-700 -148 -700 -161 0 -4 11 -10 25 -13 14 -4 29 -14 32 -24 3 -9 27 -46 53
-82 26 -36 75 -107 110 -157 35 -51 67 -93 72 -93 19 0 6 -30 -14 -34 -13 -3
-102 -21 -198 -41 -266 -54 -464 -99 -478 -108 -9 -7 -8 -15 8 -35 34 -43 70
-102 70 -113 0 -16 32 -59 44 -59 6 0 17 -14 25 -31 7 -17 29 -54 48 -82 20
-29 40 -64 45 -79 6 -16 16 -28 24 -28 8 0 18 -8 21 -17 4 -10 31 -53 60 -97
29 -43 53 -83 53 -89 0 -5 16 -27 35 -49 20 -21 38 -52 41 -68 4 -15 14 -30
23 -33 18 -4 61 -84 61 -112 0 -8 6 -12 14 -9 7 3 16 -3 20 -13 7 -22 31 -62
84 -138 23 -33 38 -62 34 -66 -4 -3 -61 -12 -127 -19 -255 -26 -1006 -155
-1310 -224 -82 -19 -202 -47 -265 -61 -362 -84 -777 -211 -1140 -350 -124 -48
-245 -94 -270 -103 -42 -14 -43 -16 -21 -26 28 -12 131 8 350 70 370 105 1409
334 1514 334 34 0 94 -34 337 -192 65 -42 356 -188 495 -248 821 -353 1823
-549 2910 -567 560 -9 947 17 1525 102 609 90 1111 224 1605 428 280 115 653
312 856 451 27 19 57 32 66 30 10 -2 170 -33 357 -69 393 -77 734 -157 1186
-279 320 -86 400 -106 431 -106 83 0 -626 267 -1041 391 -338 102 -856 224
-1200 284 -80 13 -221 38 -314 54 -93 17 -270 44 -395 61 -124 16 -260 35
-301 41 -41 6 -83 11 -92 11 -10 -1 -18 3 -18 9 0 9 14 13 37 10 15 -2 57 63
67 102 4 19 12 27 24 25 12 -2 23 13 41 60 16 39 27 58 32 50 9 -15 9 -14 32
35 9 21 52 91 94 155 42 64 81 129 87 145 6 15 16 27 24 27 7 0 26 27 41 60
16 34 38 69 50 79 12 10 21 23 21 28 0 6 12 23 26 38 14 16 35 44 45 64 29 52
42 72 61 92 10 10 24 34 32 52 9 23 23 37 40 41 88 22 -42 60 -559 161 -71 15
-131 28 -133 30 -3 2 4 24 15 47 11 24 24 53 27 66 7 22 26 31 26 12 0 -5 5
-10 10 -10 6 0 10 7 10 15 0 8 8 39 17 70 16 52 36 71 45 43 3 -7 13 12 22 43
17 55 48 98 83 118 10 5 15 12 12 15 -17 17 -380 97 -684 151 -49 9 -173 32
-275 51 -186 35 -379 63 -565 84 -140 16 -138 15 -132 58 8 51 43 197 51 211
4 6 11 32 16 59 22 124 43 199 62 219 20 21 20 21 0 32 -59 32 -593 84 -1027
101 -277 11 -372 11 -680 -1z m780 -109 c229 -11 630 -38 661 -45 21 -5 21 -7
9 -62 -7 -32 -18 -105 -24 -163 -15 -126 -31 -221 -42 -235 -4 -5 -13 -39 -19
-75 -6 -36 -25 -120 -41 -187 -15 -67 -37 -173 -48 -235 -11 -62 -25 -140 -32
-173 -6 -33 -12 -69 -13 -82 -4 -34 -21 -49 -86 -72 -33 -12 -64 -30 -69 -39
-11 -21 -28 -139 -36 -247 -9 -130 -15 -165 -29 -165 -8 0 -25 -68 -50 -202
-20 -112 -47 -251 -59 -309 l-21 -107 -536 2 -535 1 -12 65 c-7 36 -17 94 -23
130 -16 87 -46 244 -81 420 -43 218 -62 330 -63 378 -2 36 -6 45 -33 62 -17
10 -50 24 -73 30 -27 7 -44 19 -49 33 -9 25 -63 313 -81 432 -7 44 -19 112
-27 150 -8 39 -17 81 -19 95 -3 14 -12 57 -20 95 -52 253 -81 450 -67 458 10
6 459 45 573 50 186 8 764 6 945 -3z m1860 -1200 c3 -5 1 -10 -4 -10 -6 0 -11
5 -11 10 0 6 2 10 4 10 3 0 8 -4 11 -10z m-3973 -70 c9 -30 42 -140 73 -245
32 -104 77 -248 100 -320 23 -71 59 -182 78 -245 19 -63 51 -166 71 -229 20
-63 34 -117 31 -119 -3 -3 -155 -18 -338 -34 -182 -15 -414 -37 -514 -48 -101
-11 -209 -20 -242 -20 l-60 0 -6 38 c-4 20 -16 50 -27 65 -11 16 -17 35 -14
44 4 10 2 13 -8 10 -17 -7 -40 17 -61 63 -18 40 -54 103 -64 110 -7 6 -15 19
-72 115 -52 89 -91 147 -105 160 -19 17 -120 167 -144 215 -25 50 -61 103 -72
108 -5 2 -8 10 -8 18 0 7 -11 21 -24 29 -31 20 -52 75 -34 87 7 4 20 8 29 8 8
0 49 9 90 19 139 37 419 90 994 190 214 38 222 39 270 37 40 -1 40 -2 57 -56z
m3619 31 c455 -77 615 -106 881 -158 158 -31 291 -59 297 -62 15 -10 -45 -129
-105 -206 -41 -53 -154 -232 -154 -243 0 -5 -7 -15 -15 -22 -14 -12 -63 -91
-118 -193 -16 -29 -37 -61 -46 -72 -10 -11 -26 -39 -36 -62 -10 -23 -22 -41
-27 -40 -5 1 -30 -34 -55 -78 -25 -44 -51 -83 -58 -87 -7 -4 -15 -19 -19 -32
-3 -13 -11 -26 -18 -28 -7 -3 -92 3 -188 13 -229 24 -585 55 -785 70 -88 6
-162 13 -164 15 -5 5 22 104 29 104 7 0 16 28 50 150 12 41 27 93 35 115 8 22
32 101 55 175 23 74 59 191 80 260 22 69 55 177 74 240 51 170 51 170 84 170
16 0 107 -13 203 -29z m437 22 c-10 -2 -28 -2 -40 0 -13 2 -5 4 17 4 22 1 32
-1 23 -4z m-1256 -26 c-24 -11 -38 -5 -28 11 3 6 16 8 28 4 l22 -5 -22 -10z
m-2512 -43 c2 -3 -2 -9 -10 -14 -12 -8 -10 -10 8 -10 13 0 22 -3 20 -7 -24
-50 -33 -63 -43 -63 -20 0 -42 61 -36 104 1 8 51 0 61 -10z m227 -32 c8 -5 -1
-8 -22 -9 -19 -1 -32 3 -29 8 6 11 35 11 51 1z m-72 -12 c-4 -6 6 -10 22 -10
15 0 35 -5 43 -10 11 -7 7 -10 -18 -10 -19 0 -35 -6 -38 -14 -6 -16 -42 -28
-49 -16 -3 5 4 11 15 15 20 7 28 25 10 25 -5 0 -10 7 -10 15 0 8 7 15 16 15 8
0 12 -4 9 -10z m-70 -60 c12 10 15 10 15 -3 0 -8 -7 -18 -16 -21 -9 -4 -14
-13 -10 -21 4 -10 -3 -19 -18 -25 -36 -13 -40 -37 -8 -45 25 -6 26 -8 9 -19
-9 -7 -17 -18 -17 -25 0 -6 -2 -11 -4 -11 -2 0 -12 -3 -21 -6 -14 -6 -16 1
-13 52 3 52 1 59 -14 56 -10 -2 -18 1 -18 7 0 5 -3 16 -6 25 -5 12 0 16 19 16
14 0 27 7 31 15 4 12 10 13 30 3 20 -8 29 -8 41 2z m-55 -205 c0 -14 -4 -25
-10 -25 -11 0 -14 33 -3 43 11 11 13 8 13 -18z m30 -92 c0 -58 -2 -104 -5
-101 -3 3 -6 36 -7 72 -1 43 -4 63 -10 54 -8 -12 -4 17 9 65 10 36 13 13 13
-90z m2663 -26 c-3 -5 -11 -6 -18 -3 -8 3 -16 0 -19 -7 -2 -7 -5 -4 -5 5 -1
13 6 17 23 16 14 -1 22 -6 19 -11z m9 -42 c-2 -14 -6 -25 -8 -25 -2 0 -4 11
-4 25 0 14 4 25 9 25 4 0 6 -11 3 -25z m-26 -52 c-2 -3 -12 -3 -22 -1 -16 3
-17 4 -1 20 9 9 18 25 19 35 0 10 3 3 5 -15 3 -19 2 -36 -1 -39z m-2122 35 c3
-13 7 -45 9 -73 3 -27 8 -58 12 -67 5 -13 2 -18 -9 -18 -13 0 -16 11 -16 58 0
31 -4 72 -9 90 -6 19 -6 32 0 32 5 0 11 -10 13 -22z m1948 -13 c-15 -20 -18
-21 -23 -7 -8 22 -5 27 20 29 20 2 20 1 3 -22z m98 -46 c0 -5 -4 -9 -10 -9 -5
0 -10 -4 -10 -10 0 -5 7 -10 15 -10 8 0 15 9 15 20 0 11 5 20 10 20 6 0 10 -6
10 -14 0 -8 4 -16 10 -18 6 -2 4 -19 -5 -43 -8 -22 -14 -33 -15 -24 0 18 -26
33 -41 23 -5 -3 -9 15 -9 40 0 36 3 44 15 40 8 -4 15 -10 15 -15z m-2515 -43
c-10 -60 -24 -65 -28 -10 -1 21 2 28 13 26 12 -3 13 -1 3 9 -18 18 -16 30 3
22 12 -4 14 -14 9 -47z m115 19 c0 -25 -18 -25 -22 -1 -4 17 -1 23 9 19 7 -3
13 -11 13 -18z m-76 -37 c15 -75 15 -98 -2 -98 -15 0 -15 2 -2 10 13 8 12 10
-2 10 -10 0 -18 8 -19 18 0 14 -2 14 -9 -3 -12 -29 -12 2 1 48 11 42 26 48 33
15z m66 -17 c0 -11 3 -28 6 -38 5 -15 4 -15 -5 -3 -6 9 -11 10 -11 3 0 -6 -3
-20 -6 -30 -3 -11 -2 -14 3 -7 4 6 16 13 26 17 11 4 17 17 17 36 0 29 19 56
21 29 2 -37 6 -59 12 -65 4 -3 7 -1 7 5 0 7 4 12 8 12 13 0 11 -34 -2 -42 -8
-5 -7 -8 2 -8 6 0 12 -5 12 -11 0 -6 -8 -8 -19 -4 -25 8 -56 -32 -40 -51 6 -7
8 -18 4 -24 -3 -5 -1 -10 6 -10 7 0 9 -8 6 -21 -3 -11 6 -54 21 -95 l26 -74
18 28 c11 17 18 21 19 12 0 -10 2 -11 6 -3 3 10 8 10 19 -1 16 -17 19 -36 4
-36 -5 0 -10 -4 -10 -10 0 -5 12 -10 26 -10 14 0 23 -4 19 -10 -3 -5 3 -10 14
-10 11 0 21 6 24 13 2 6 2 1 0 -12 -3 -19 -1 -22 9 -14 7 6 25 13 41 17 15 3
27 10 27 14 0 4 27 7 60 7 33 0 61 2 63 5 2 3 3 0 1 -6 -1 -6 1 -15 5 -20 5
-5 13 -24 19 -41 10 -31 9 -33 -11 -33 -28 0 -205 -9 -317 -15 -112 -6 -127
-1 -140 44 -13 47 -13 64 1 55 6 -3 3 5 -6 20 -11 17 -15 36 -12 55 4 18 -1
41 -14 65 -10 20 -19 37 -19 38 0 2 12 4 26 4 31 2 30 1 38 47 6 33 5 37 -14
37 -11 0 -20 5 -20 10 0 6 6 10 13 10 8 0 9 3 1 8 -17 11 -14 132 3 132 7 0
13 -9 13 -19z m2380 -53 c5 -13 9 -19 9 -14 1 13 30 -26 31 -41 0 -6 -10 -15
-22 -19 -16 -5 -27 -1 -39 15 -18 22 -18 21 -22 -46 -3 -62 -3 -60 -5 23 -1
50 1 94 5 97 13 14 34 6 43 -15z m-2220 2 c0 -5 -7 -7 -15 -4 -8 4 -15 8 -15
10 0 2 7 4 15 4 8 0 15 -4 15 -10z m230 0 c0 -5 -2 -10 -4 -10 -3 0 -8 5 -11
10 -3 6 -1 10 4 10 6 0 11 -4 11 -10z m-450 -70 c0 -5 -7 -10 -15 -10 -8 0
-15 5 -15 10 0 6 7 10 15 10 8 0 15 -4 15 -10z m10 -24 c0 -3 -4 -8 -10 -11
-5 -3 -10 -1 -10 4 0 6 5 11 10 11 6 0 10 -2 10 -4z m459 -29 c-1 -12 1 -29 4
-37 11 -26 1 -135 -12 -132 -6 1 -11 -6 -11 -15 -1 -32 -30 17 -30 49 0 27 19
41 21 16 0 -7 5 0 10 17 5 18 5 33 -1 39 -7 7 -10 4 -10 -8 0 -22 -16 -13 -23
13 -7 30 7 46 25 27 14 -14 16 -11 14 24 -1 21 2 36 7 33 4 -3 7 -15 6 -26z
m1982 21 c3 -34 -4 -84 -12 -92 -5 -6 -9 12 -9 47 0 31 5 57 10 57 6 0 10 -6
11 -12z m-2401 -8 c0 -5 -4 -10 -10 -10 -5 0 -10 5 -10 10 0 6 5 10 10 10 6 0
10 -4 10 -10z m-36 -26 c9 -3 16 -12 16 -20 0 -17 -26 -8 -34 12 -6 16 -4 17
18 8z m2025 -51 c2 -20 -17 -15 -21 5 -2 9 -2 26 1 37 4 18 6 18 12 -5 4 -14
7 -31 8 -37z m168 5 c-3 -8 -6 -5 -6 6 -1 11 2 17 5 13 3 -3 4 -12 1 -19z
m235 -74 c-6 -11 -15 -50 -22 -88 -18 -111 -2 -103 -212 -99 -193 4 -232 8
-223 22 2 5 -2 11 -10 15 -8 3 -14 16 -14 28 l2 23 4 -22 c3 -18 11 -23 34
-23 16 0 29 5 29 10 0 6 5 10 11 10 5 0 8 -3 6 -7 -3 -5 44 -4 104 1 85 7 109
12 105 22 -7 18 21 33 48 26 18 -5 19 -3 8 10 -13 16 -6 52 8 43 13 -8 40 6
40 20 0 8 11 11 30 9 27 -3 30 -1 30 23 0 25 1 26 16 11 12 -11 13 -20 6 -34z
m-477 -164 c3 -5 -1 -10 -10 -10 -9 0 -13 5 -10 10 3 6 8 10 10 10 2 0 7 -4
10 -10z m2560 -525 c77 -8 142 -15 143 -15 39 -2 -296 -181 -553 -295 -532
-237 -1280 -427 -1980 -505 -185 -20 -713 -55 -705 -47 3 4 78 15 165 27 795
103 1185 184 1684 350 329 109 681 284 910 453 61 45 66 47 130 47 36 0 129
-7 206 -15z"/>
<path d="M5182 6083 l-94 -4 8 -67 c12 -121 -6 -112 214 -112 l190 0 0 89 0
88 -37 7 c-37 6 -88 5 -281 -1z"/>
<path d="M6129 6082 c-19 -3 -29 -49 -29 -129 l0 -53 185 0 c181 0 185 0 199
23 19 31 30 146 13 152 -15 5 -346 11 -368 7z"/>
<path d="M5145 5720 c-3 -5 -2 -10 3 -10 5 0 12 -23 15 -50 3 -28 9 -55 12
-60 4 -6 76 -10 176 -10 l169 0 0 70 0 70 -184 0 c-113 0 -187 -4 -191 -10z"/>
<path d="M6057 5724 c-4 -4 -7 -35 -7 -70 0 -50 3 -62 18 -66 9 -2 92 -2 184
0 187 5 174 -2 180 87 l3 50 -186 3 c-102 1 -188 -1 -192 -4z"/>
<path d="M5195 5373 c4 -38 11 -72 16 -78 12 -12 203 -24 287 -17 l62 5 0 78
0 79 -186 0 -186 0 7 -67z"/>
<path d="M6042 5431 c-9 -5 -12 -29 -10 -82 l3 -74 163 1 c89 0 164 3 166 5 2
2 7 39 11 82 l7 77 -164 0 c-89 0 -169 -4 -176 -9z"/>
<path d="M3758 4836 c-57 -15 -78 -32 -78 -61 0 -50 92 -69 210 -44 56 12 58
18 34 79 -16 40 -17 40 -68 39 -28 0 -72 -6 -98 -13z"/>
<path d="M3347 4766 c-37 -7 -69 -15 -73 -18 -9 -9 70 -108 86 -108 21 0 129
26 163 39 l28 11 -23 31 c-25 34 -67 60 -95 58 -10 -1 -48 -7 -86 -13z"/>
<path d="M2986 4694 c-38 -7 -73 -17 -78 -22 -4 -4 10 -25 32 -47 l39 -38 101
13 c56 7 103 17 106 22 6 10 -14 45 -41 72 -20 19 -64 19 -159 0z"/>
<path d="M3477 4530 c-43 -10 -81 -20 -83 -23 -17 -17 76 -97 112 -97 12 0 52
9 88 20 l66 21 -16 32 c-37 74 -43 75 -167 47z"/>
<path d="M3093 4461 c-24 -4 -46 -10 -49 -14 -9 -8 9 -43 39 -80 l22 -26 105
17 c58 10 105 22 105 28 0 15 -38 60 -62 72 -23 13 -92 14 -160 3z"/>
<path d="M3228 4257 c-38 -6 -68 -14 -68 -19 0 -4 10 -24 23 -43 20 -31 27
-35 68 -35 56 0 159 20 159 31 0 4 -9 24 -21 43 -24 40 -34 42 -161 23z"/>
<path d="M7704 4835 c-8 -13 -18 -39 -21 -58 -6 -42 -7 -42 131 -55 83 -8 89
-7 101 12 8 12 15 34 17 51 3 28 1 30 -57 46 -33 9 -82 18 -108 21 -42 5 -50
3 -63 -17z"/>
<path d="M8127 4753 c-26 -14 -56 -57 -46 -68 7 -6 112 -33 161 -40 41 -6 44
-5 63 27 10 18 28 40 40 50 20 16 20 16 -10 23 -16 3 -46 10 -66 15 -50 14
-109 11 -142 -7z"/>
<path d="M8472 4686 c-36 -60 -37 -74 -5 -83 15 -4 65 -8 110 -8 80 0 83 1
118 35 l36 35 -28 12 c-15 6 -59 17 -98 23 -38 6 -80 13 -92 15 -16 4 -26 -3
-41 -29z"/>
<path d="M8009 4533 c-22 -26 -49 -71 -49 -82 0 -5 39 -16 86 -25 84 -15 88
-15 119 4 32 20 65 60 65 79 0 8 -43 18 -165 37 -32 5 -43 2 -56 -13z"/>
<path d="M8354 4462 c-28 -29 -54 -65 -54 -73 0 -4 9 -11 21 -14 37 -12 174
-22 194 -14 11 4 30 25 42 47 l23 40 -50 11 c-28 6 -74 14 -104 17 -46 6 -56
3 -72 -14z"/>
<path d="M8235 4240 c-31 -60 -20 -68 93 -77 l74 -6 34 38 c41 47 39 49 -75
64 -112 15 -108 15 -126 -19z"/>
<path d="M4673 3963 c9 -2 23 -2 30 0 6 3 -1 5 -18 5 -16 0 -22 -2 -12 -5z"/>
<path d="M4710 3929 c0 -5 9 -9 20 -9 11 0 20 2 20 4 0 2 -9 6 -20 9 -11 3
-20 1 -20 -4z"/>
<path d="M4770 3890 c0 -5 4 -10 9 -10 6 0 13 5 16 10 3 6 -1 10 -9 10 -9 0
-16 -4 -16 -10z"/>
<path d="M3240 1710 c-397 -49 -706 -343 -770 -732 -14 -91 -12 -233 5 -307
31 -129 128 -261 239 -326 128 -75 297 -105 473 -86 127 15 299 57 408 100
101 41 125 56 125 82 0 29 57 287 71 322 19 47 62 74 139 88 39 7 72 15 74 18
2 3 6 18 10 34 l6 27 -375 0 c-293 0 -375 -3 -375 -12 0 -7 -3 -22 -6 -33 -4
-18 3 -22 65 -38 88 -23 121 -47 121 -90 0 -18 -14 -95 -31 -172 -29 -129 -34
-142 -67 -172 -56 -52 -132 -76 -227 -71 -89 5 -126 20 -178 72 -73 73 -107
187 -107 361 0 483 228 855 523 855 200 0 329 -133 371 -383 l12 -72 40 -3 40
-3 52 248 c29 136 52 251 52 256 0 19 -75 6 -108 -20 l-35 -27 -76 27 c-158
55 -320 75 -471 57z"/>
<path d="M6445 1710 c-209 -29 -383 -116 -530 -264 -161 -162 -242 -348 -252
-581 -9 -197 31 -310 151 -431 128 -129 251 -174 476 -174 198 0 316 31 475
124 92 54 239 200 293 292 109 183 156 426 117 607 -41 195 -206 358 -418 411
-74 19 -234 27 -312 16z m203 -100 c112 -51 162 -167 162 -384 0 -338 -106
-643 -278 -796 -142 -127 -339 -121 -427 14 -55 83 -70 151 -69 306 2 304 94
591 240 749 90 97 156 130 264 130 43 0 79 -6 108 -19z"/>
<path d="M7366 1698 c-10 -40 -7 -47 29 -54 49 -9 114 -59 131 -100 11 -26
143 -1155 144 -1227 0 -4 44 -6 97 -5 l97 3 280 518 c247 457 281 515 287 490
4 -15 33 -250 65 -520 l58 -493 101 0 100 1 180 317 c414 729 514 896 560 939
41 38 134 83 170 83 8 0 15 1 15 3 0 1 4 17 9 35 l10 32 -284 0 -284 0 -9 -32
-8 -33 66 -11 c92 -16 130 -37 130 -73 0 -16 -30 -89 -66 -162 -79 -163 -387
-729 -395 -729 -3 0 -9 26 -12 58 -4 31 -31 263 -62 514 -30 251 -55 459 -55
462 0 3 -46 6 -102 6 l-103 0 -82 -158 c-166 -317 -454 -857 -461 -864 -10
-10 -96 865 -88 890 8 24 62 47 133 57 58 7 57 7 67 48 l6 27 -359 0 -359 0
-6 -22z"/>
<path d="M4242 1648 l-9 -33 47 -11 c66 -16 102 -35 119 -65 13 -24 5 -64
-104 -540 -64 -283 -124 -531 -133 -552 -19 -48 -67 -74 -156 -83 -38 -4 -66
-12 -66 -18 0 -6 -3 -21 -6 -33 l-6 -23 370 0 c204 0 373 3 375 8 2 4 7 19 11
35 6 24 3 27 -17 27 -43 0 -126 30 -137 50 -17 31 -12 74 31 258 63 275 54
252 98 252 l38 0 76 -137 c69 -125 193 -378 226 -460 l13 -33 254 0 c197 0
254 3 254 13 0 6 3 22 6 35 5 18 2 22 -17 22 -86 0 -148 49 -217 167 -49 84
-213 377 -235 420 l-17 31 73 22 c157 47 286 143 336 250 22 47 26 69 26 151
0 85 -3 99 -24 131 -36 52 -106 95 -196 120 -76 20 -105 22 -542 26 l-462 4
-9 -34z m709 -58 c54 -15 101 -50 127 -95 20 -36 23 -50 19 -135 -4 -120 -36
-197 -109 -266 -73 -68 -123 -87 -247 -92 -98 -4 -104 -3 -99 14 3 11 33 146
68 302 l64 282 71 0 c38 0 86 -5 106 -10z"/>
</g>
</svg>
